<?xml version="1.0" encoding="utf-8"?>
<!-- Generator: Adobe Adobe Illustrator 24.2.0, SVG Export Plug-In . SVG Version: 6.00 Build 0)  -->
<svg version="1.1" id="Layer_1" xmlns="http://www.w3.org/2000/svg" xmlns:xlink="http://www.w3.org/1999/xlink" x="0px" y="0px"
	 width="1962px" height="648px" viewBox="0 0 1962 648" style="enable-background:new 0 0 1962 648;" xml:space="preserve">
<style type="text/css">
	.st0{fill-rule:evenodd;clip-rule:evenodd;fill:currentColor;}
</style>
<g>
	<path class="st0" d="M1727.7,195.36v265.16c0,27.11-18.07,36.14-49.37,36.14c-31.29,0-47.01-15.06-47.01-36.14V195.36h-171.29
		v301.3c0,81.79,38.77,138.84,132.14,138.84c93.37,0,135.53-57.53,135.53-57.53v54.51h168.94V195.2L1727.7,195.36z"/>
	<path class="st0" d="M1230.76,334.99c48.19,0,57.22,53.24,57.22,53.24l154.93-53.24c0,0-13.37-139.79-203.11-139.79
		s-223.83,151.44-223.83,219.67c0,68.23,46.14,220.63,223.83,220.63s203.11-141.86,203.11-141.86l-154.93-54.21
		c0,0-9.04,54.21-57.22,54.21c-45.18,0-63.25-30.5-63.25-78.22S1182.57,334.99,1230.76,334.99z"/>
	<path class="st0" d="M789.09,195.2c-140.49-0.16-178.76,99.67-178.76,99.67l117.46,54.21c0,0,6.02-36.14,61.3-36.14
		c55.28,0,50.14,60.24,50.14,60.24s-7.03-12.05-111.44-12.05s-143.36,78.31-143.36,141.55s37.95,131.86,128.3,131.86
		s119.47-59.58,119.47-59.58l-2.01,56.54h161.55c0,0,2.01-231.23,2.01-309.53S929.58,195.36,789.09,195.2z M775.98,526.77
		c-36.14,0-48.19-18.07-48.19-39.15c0-48.19,56.71-48.19,102.4-48.19C830.19,439.43,848.26,526.77,775.98,526.77z"/>
	<polygon class="st0" points="480.82,44.5 367.66,415.43 257.95,44.5 61.36,44.5 282.04,625.48 441.67,625.48 673.95,44.5 	"/>
</g>
</svg>
